<svg width="21" height="20" viewBox="0 0 21 20" fill="none" xmlns="http://www.w3.org/2000/svg">
<g clip-path="url(#clip0_6_623)">
<path d="M20.1111 15.9032L17.8939 14.4249L15.9228 13.1111C15.5425 12.8581 15.0313 12.941 14.7504 13.3015L13.5308 14.8694C13.2688 15.2096 12.7975 15.3074 12.4218 15.0994C11.5943 14.6391 10.6156 14.2056 8.45637 12.0436C6.2971 9.88154 5.86089 8.90569 5.40055 8.07812C5.19254 7.70243 5.29031 7.23114 5.63055 6.96919L7.19846 5.74956C7.55888 5.46878 7.64189 4.95758 7.38881 4.57715L6.11538 2.66683L4.59677 0.388887C4.33829 0.00115741 3.82088 -0.115247 3.42127 0.124398L1.66989 1.17509C1.19657 1.45395 0.848649 1.90426 0.698182 2.43265C0.219242 4.17884 0.122681 8.03086 6.29605 14.2042C12.4694 20.3776 16.3211 20.2807 18.0673 19.8017C18.5957 19.6513 19.046 19.3034 19.3248 18.83L20.3755 17.0787C20.6152 16.679 20.4988 16.1617 20.1111 15.9032Z" fill="white"/>
<path d="M11.879 3.10337C15.115 3.10696 17.7374 5.72935 17.741 8.96537C17.741 9.1558 17.8954 9.31021 18.0858 9.31021C18.2763 9.31021 18.4307 9.15584 18.4307 8.96537C18.4267 5.34865 15.4957 2.41771 11.879 2.41373C11.6886 2.41373 11.5342 2.5681 11.5342 2.75857C11.5341 2.94896 11.6885 3.10337 11.879 3.10337Z" fill="white"/>
<path d="M11.879 5.17228C13.9729 5.17475 15.6696 6.87152 15.6721 8.96533C15.6721 9.15575 15.8264 9.31017 16.0169 9.31017C16.2073 9.31017 16.3618 9.15579 16.3618 8.96533C16.3589 6.49078 14.3536 4.48546 11.879 4.4826C11.6886 4.4826 11.5342 4.63698 11.5342 4.82744C11.5342 5.01791 11.6886 5.17228 11.879 5.17228Z" fill="white"/>
<path d="M11.879 7.24125C12.8307 7.24239 13.602 8.01364 13.6031 8.96539C13.6031 9.15582 13.7575 9.31024 13.948 9.31024C14.1384 9.31024 14.2928 9.15586 14.2928 8.96539C14.2913 7.63293 13.2115 6.55313 11.879 6.55161C11.6886 6.55161 11.5342 6.70598 11.5342 6.89645C11.5341 7.08688 11.6885 7.24125 11.879 7.24125Z" fill="white"/>
</g>
<defs>
<clipPath id="clip0_6_623">
<rect width="20" height="20" fill="white" transform="translate(0.5)"/>
</clipPath>
</defs>
</svg>
