<svg width="70" height="71" viewBox="0 0 70 71" fill="none" xmlns="http://www.w3.org/2000/svg">
<path d="M70 0.790283H10C4.47715 0.790283 0 5.26744 0 10.7903V70.7903H60C65.5228 70.7903 70 66.3131 70 60.7903V0.790283Z" fill="url(#paint0_linear_2_632)"/>
<path d="M44.9875 32.3478C45.6888 30.5841 46.7937 28.8416 48.2706 27.1628C48.7381 26.6315 48.8019 25.8666 48.4194 25.2716C48.1218 24.8041 47.6331 24.5491 47.1019 24.5491C46.9531 24.5491 46.8044 24.5597 46.6556 24.6128C43.5319 25.5266 36.2325 28.7672 36.0306 39.1585C35.9563 43.164 38.8887 46.6065 42.7031 46.9997C44.8175 47.2122 46.9212 46.5216 48.4831 45.1191C50.045 43.7059 50.9375 41.6872 50.9375 39.5834C50.9375 36.0772 48.4512 33.0065 44.9875 32.3478Z" fill="white"/>
<path d="M25.7456 46.9997C27.8494 47.2122 29.9531 46.5216 31.515 45.1191C33.0769 43.7059 33.9694 41.6872 33.9694 39.5834C33.9694 36.0772 31.4831 33.0065 28.0194 32.3478C28.7207 30.5841 29.8256 28.8416 31.3025 27.1628C31.77 26.6315 31.8338 25.8666 31.4512 25.2716C31.1538 24.8041 30.665 24.5491 30.1337 24.5491C29.985 24.5491 29.8363 24.5597 29.6875 24.6128C26.5638 25.5266 19.2644 28.7672 19.0625 39.1585L19.0625 39.3072C19.0625 43.2491 21.9631 46.6065 25.7456 46.9997V46.9997Z" fill="white"/>
<defs>
<linearGradient id="paint0_linear_2_632" x1="70" y1="0.790283" x2="-4.62499" y2="6.12785" gradientUnits="userSpaceOnUse">
<stop stop-color="#00B894"/>
<stop offset="1" stop-color="#008149"/>
</linearGradient>
</defs>
</svg>
