<svg width="70" height="71" viewBox="0 0 70 71" fill="none" xmlns="http://www.w3.org/2000/svg">
<path d="M70 60.7903C70 66.3131 65.5228 70.7903 60 70.7903L0 70.7903L5.24537e-06 10.7903C5.72819e-06 5.26743 4.47716 0.790277 10 0.790278L70 0.790283L70 60.7903Z" fill="url(#paint0_linear_2_646)"/>
<path d="M25.0125 39.2328C24.3112 40.9965 23.2063 42.739 21.7294 44.4178C21.2619 44.949 21.1981 45.714 21.5806 46.309C21.8782 46.7765 22.3669 47.0315 22.8981 47.0315C23.0469 47.0315 23.1956 47.0209 23.3444 46.9677C26.4681 46.054 33.7675 42.8134 33.9694 32.4221C34.0437 28.4165 31.1113 24.974 27.2969 24.5809C25.1825 24.3684 23.0788 25.059 21.5169 26.4615C19.955 27.8746 19.0625 29.8934 19.0625 31.9971C19.0625 35.5034 21.5488 38.574 25.0125 39.2328Z" fill="white"/>
<path d="M44.2544 24.5809C42.1506 24.3684 40.0469 25.059 38.485 26.4615C36.9231 27.8746 36.0306 29.8934 36.0306 31.9971C36.0306 35.5034 38.5169 38.574 41.9806 39.2328C41.2793 40.9965 40.1744 42.739 38.6975 44.4178C38.23 44.949 38.1662 45.714 38.5488 46.309C38.8462 46.7765 39.335 47.0315 39.8663 47.0315C40.015 47.0315 40.1637 47.0209 40.3125 46.9677C43.4362 46.054 50.7356 42.8134 50.9375 32.4221V32.2734C50.9375 28.3315 48.0369 24.974 44.2544 24.5809Z" fill="white"/>
<defs>
<linearGradient id="paint0_linear_2_646" x1="70" y1="70.7903" x2="-4.62499" y2="65.4527" gradientUnits="userSpaceOnUse">
<stop stop-color="#00B894"/>
<stop offset="1" stop-color="#008149"/>
</linearGradient>
</defs>
</svg>
